<svg width="29" height="29" viewBox="0 0 29 29" fill="none" xmlns="http://www.w3.org/2000/svg">
<path d="M9.85973 23V12.2048H6.21504V23H9.85973ZM8.03785 10.73C9.30882 10.73 10.0999 9.9011 10.0999 8.8652C10.0763 7.80594 9.30887 7 8.06197 7C6.81527 7 6 7.80595 6 8.8652C6 9.90115 6.79092 10.73 8.01406 10.73H8.03774H8.03785ZM11.8771 23H15.5218V16.9715C15.5218 16.6488 15.5454 16.3265 15.6417 16.0959C15.9052 15.4512 16.5049 14.7836 17.5117 14.7836C18.8305 14.7836 19.3582 15.7736 19.3582 17.2248V22.9999H23.0026V16.8101C23.0026 13.4942 21.2045 11.9514 18.8065 11.9514C16.8404 11.9514 15.9771 13.0333 15.4975 13.7703H15.5218V12.2046H11.8771C11.925 13.2176 11.8771 22.9998 11.8771 22.9998L11.8771 23Z" fill="black"/>
</svg>
