<svg width="29" height="29" viewBox="0 0 29 29" fill="none" xmlns="http://www.w3.org/2000/svg">
<g clip-path="url(#clip0_32_128)">
<path d="M15 2C10.0243 2 6 5.85824 6 10.6287C6 15.7689 11.6829 22.8567 14.0229 25.5562C14.5371 26.1479 15.4757 26.1479 15.99 25.5562C18.3171 22.8567 24 15.7689 24 10.6287C24 5.85824 19.9757 2 15 2ZM15 13.7103C13.2257 13.7103 11.7857 12.3297 11.7857 10.6287C11.7857 8.92758 13.2257 7.547 15 7.547C16.7743 7.547 18.2143 8.92758 18.2143 10.6287C18.2143 12.3297 16.7743 13.7103 15 13.7103Z" fill="#1C1C1C"/>
</g>
<defs>
<clipPath id="clip0_32_128">
<rect width="29" height="29" fill="white"/>
</clipPath>
</defs>
</svg>
