<svg width="29" height="29" viewBox="0 0 29 29" fill="none" xmlns="http://www.w3.org/2000/svg">
<path d="M23.719 9.65632C23.0672 9.93749 22.3672 10.1276 21.6312 10.213C22.3824 9.77569 22.9578 9.08271 23.2295 8.25795C22.516 8.66998 21.7351 8.96005 20.9207 9.11556C20.258 8.42878 19.313 8 18.2675 8C16.2607 8 14.6331 9.58169 14.6331 11.5339C14.6331 11.8105 14.6652 12.0804 14.7268 12.3395C11.7058 12.1919 9.02744 10.785 7.2347 8.64718C6.92166 9.16929 6.74248 9.77633 6.74248 10.424C6.74248 11.6499 7.38427 12.7315 8.35946 13.3651C7.78217 13.3477 7.21754 13.1962 6.71278 12.9233V12.968C6.71278 14.6803 7.96554 16.1082 9.6285 16.4329C9.32302 16.5143 9.00243 16.5568 8.67076 16.5568C8.43627 16.5568 8.20876 16.5352 7.98651 16.4946C8.44908 17.8981 9.7915 18.9197 11.3816 18.9486C10.1376 19.8967 8.57008 20.4619 6.86756 20.4619C6.57432 20.4619 6.28451 20.4449 6 20.4115C7.60887 21.4145 9.51914 22 11.5719 22C18.2576 22 21.914 16.6151 21.914 11.9452C21.914 11.7919 21.9105 11.6397 21.9029 11.4881C22.6153 10.9872 23.2303 10.3669 23.719 9.65632Z" fill="black"/>
</svg>
